# xmcd
#
# Track frame offsets: 
#        150
#        21422
#        45578
#        65042
#        83618
#        108905
#        130585
#        152874
#        178752
#        194425
#        212584
#        233429
#
# Disc length: 3333 seconds
#
# Revision: 0
# Processed by: cddbd v1.5.2PL0 Copyright (c) Steve Scherf et al.
# Submitted via: ExactAudioCopy v0.99pb4
#
DISCID=9a0d030c
DTITLE=Tab Benoit, Debbie Davies, Kenny Neal - Homesick For The Road
DYEAR=1999
DGENRE=Blues
TTITLE0=Deal With It
TTITLE1=Down In The Swamp
TTITLE2=Bop 'Til I Drop
TTITLE3=So Cold
TTITLE4=I Put A Spell On You
TTITLE5=Money
TTITLE6=Luberta
TTITLE7=I Can't Afford Myself
TTITLE8=I've Been Mistreated
TTITLE9=Night Life
TTITLE10=Still Called The Blues
TTITLE11=Homesick For The Road
EXTD=
EXTT0=
EXTT1=
EXTT2=
EXTT3=
EXTT4=
EXTT5=
EXTT6=
EXTT7=
EXTT8=
EXTT9=
EXTT10=
EXTT11=
PLAYORDER=
